<svg height="26.99" viewBox="0 0 23.054 26.99" width="23.054" xmlns="http://www.w3.org/2000/svg">
    <path
        d="m253.028 0a6.334 6.334 0 0 0 -4.1 2.22 5.5 5.5 0 0 0 -1.343 4.275 5.346 5.346 0 0 0 4.138-2.114 5.938 5.938 0 0 0 1.305-4.381z"
        transform="translate(-236.442)" />
    <path
        d="m59.609 122.578a6.832 6.832 0 0 0 -5.157-2.738c-2.421 0-3.445 1.159-5.126 1.159-1.734 0-3.052-1.156-5.145-1.156a7 7 0 0 0 -5.634 3.406c-1.952 3.026-1.618 8.716 1.545 13.563 1.132 1.734 2.643 3.684 4.62 3.7 1.759.017 2.255-1.129 4.639-1.14s2.836 1.156 4.592 1.137c1.979-.015 3.573-2.176 4.7-3.91a19.447 19.447 0 0 0 1.743-3.273 5.95 5.95 0 0 1 -.777-10.748z"
        transform="translate(-37.336 -113.523)" />
</svg>