<svg height="23.054" viewBox="0 0 23.054 23.054" width="23.054" xmlns="http://www.w3.org/2000/svg">
    <path
        d="m21.782 0h-20.51a1.272 1.272 0 0 0 -1.272 1.273v20.51a1.272 1.272 0 0 0 1.273 1.272h20.509a1.272 1.272 0 0 0 1.273-1.272v-20.511a1.272 1.272 0 0 0 -1.273-1.272zm0 0"
        fill="#4267b2" />
    <path
        d="m213.6 96.9v-8.919h3l.45-3.49h-3.45v-2.222c0-1.008.28-1.695 1.725-1.695h1.832v-3.113a24.625 24.625 0 0 0 -2.685-.137c-2.657 0-4.475 1.621-4.475 4.6v2.568h-2.997v3.49h2.994v8.918zm0 0"
        fill="#fff" transform="translate(-197.679 -73.842)" />
</svg>