<svg height="20.922" viewBox="0 0 25.75 20.922" width="25.75" xmlns="http://www.w3.org/2000/svg">
    <path
        d="m25.75 50.477a11.006 11.006 0 0 1 -3.042.834 5.249 5.249 0 0 0 2.322-2.918 10.55 10.55 0 0 1 -3.348 1.278 5.279 5.279 0 0 0 -9.132 3.61 5.436 5.436 0 0 0 .122 1.2 14.942 14.942 0 0 1 -10.879-5.519 5.28 5.28 0 0 0 1.622 7.056 5.213 5.213 0 0 1 -2.385-.65v.058a5.3 5.3 0 0 0 4.229 5.187 5.269 5.269 0 0 1 -1.384.174 4.667 4.667 0 0 1 -1-.09 5.329 5.329 0 0 0 4.933 3.677 10.607 10.607 0 0 1 -6.545 2.252 9.888 9.888 0 0 1 -1.263-.073 14.862 14.862 0 0 0 8.1 2.369 14.922 14.922 0 0 0 15.023-15.022c0-.233-.008-.459-.019-.682a10.531 10.531 0 0 0 2.646-2.741z"
        fill="#03a9f4" transform="translate(0 -48)" />
</svg>